<svg id="圖層_1" data-name="圖層 1" xmlns="http://www.w3.org/2000/svg" viewBox="0 0 41.78 41.78"><defs><style>.cls-1{fill:#3a5590;}.cls-2{fill:#fefeff;}</style></defs><g id="Group_67" data-name="Group 67"><path id="Path_34" data-name="Path 34" class="cls-1" d="M41.78,20.9A20.89,20.89,0,1,1,20.88,0a20.9,20.9,0,0,1,20.9,20.9ZM22.4,28.57c0-2.06,0-4.13,0-6.2,0-.53.14-.71.68-.68.82,0,1.64,0,2.45,0,.51,0,.66-.17.7-.63.1-1.19.23-2.38.37-3.56.06-.47-.08-.63-.55-.61-1,0-2,0-3,0-.44,0-.65-.11-.63-.59,0-.7,0-1.41,0-2.12,0-1.07.43-1.44,1.53-1.45.7,0,1.41,0,2.12,0,.47,0,.6-.15.59-.6,0-1.17,0-2.34,0-3.51,0-.36-.08-.54-.5-.53-1.55,0-3.1-.05-4.65,0a4.9,4.9,0,0,0-4.55,4.1A13.26,13.26,0,0,0,16.78,15c0,2,0,2-1.92,2h-.24c-.43-.05-.58.13-.56.56,0,.76,0,1.52,0,2.28,0,1.93,0,2,1.93,1.92.66,0,.8.19.8.82,0,4,0,8.1,0,12.15,0,.56.14.75.72.74,1.41,0,2.83,0,4.24,0,.56,0,.68-.19.68-.7,0-2.05,0-4.09,0-6.13Z"/><path id="Path_35" data-name="Path 35" class="cls-2" d="M22.4,28.57c0,2,0,4.08,0,6.12,0,.52-.12.72-.68.7-1.41,0-2.82,0-4.24,0-.58,0-.72-.17-.72-.73,0-4.06,0-8.1,0-12.16,0-.62-.15-.83-.8-.81-1.93,0-1.93,0-1.93-1.93,0-.76,0-1.52,0-2.28,0-.42.14-.61.56-.56h.24c1.92,0,1.91,0,1.92-2A12.63,12.63,0,0,1,17,12.27,4.87,4.87,0,0,1,21.5,8.18c1.54-.1,3.1,0,4.64-.06.41,0,.5.17.5.54,0,1.16,0,2.33,0,3.5,0,.46-.12.63-.59.6-.71,0-1.41,0-2.12,0-1.1,0-1.49.38-1.52,1.45,0,.71,0,1.42,0,2.12,0,.49.19.6.63.59,1,0,2,0,3,0,.47,0,.61.15.55.61-.14,1.18-.27,2.37-.37,3.56,0,.47-.19.66-.7.63-.81-.05-1.63,0-2.44,0-.54,0-.7.14-.69.68C22.41,24.44,22.4,26.51,22.4,28.57Z"/></g></svg>