<svg id="圖層_1" data-name="圖層 1" xmlns="http://www.w3.org/2000/svg" viewBox="0 0 41.78 41.78"><defs><style>.cls-1{fill:#3daf36;}.cls-2{fill:#fdfefd;}.cls-3{fill:#3eaf36;}.cls-4{fill:#40af35;}</style></defs><g id="Group_920" data-name="Group 920"><circle id="Ellipse_223" data-name="Ellipse 223" class="cls-1" cx="20.89" cy="20.89" r="20.89"/><g id="Group_919" data-name="Group 919"><path id="Path_29" data-name="Path 29" class="cls-2" d="M21.26,6.6c4.73.15,9,1.51,12.36,5A10.37,10.37,0,0,1,34.86,25,29.46,29.46,0,0,1,24.8,34c-1.25.73-2.55,1.37-3.82,2a1,1,0,0,1-1.1.07A1,1,0,0,1,19.52,35c.1-.66.17-1.32.25-2,.14-1.27-.05-1.5-1.34-1.67a16.76,16.76,0,0,1-6.79-2.37c-3.3-2-5.63-4.8-6.08-8.8A10.45,10.45,0,0,1,9.24,11C12.63,7.86,16.75,6.68,21.26,6.6ZM20.9,18.74c1.11,1.42,2.06,2.64,3,3.86.29.38.59.69,1.11.5s.52-.6.52-1c0-1.81,0-3.62,0-5.42,0-.55-.1-1.06-.77-1.07s-.82.52-.81,1.1c0,1,0,2.08,0,3.16-.36-.11-.45-.37-.6-.56-.83-1.07-1.67-2.15-2.49-3.23a.87.87,0,0,0-1-.44.84.84,0,0,0-.58.91v5.76a.78.78,0,0,0,.79.89c.54,0,.77-.36.81-.87,0-.28,0-.55,0-.83V18.74Zm5.84.62V22.2c0,.59.27,1,.89,1,1,0,2.05,0,3.08,0a.74.74,0,0,0,.8-.66v-.12c0-.55-.35-.79-.86-.8s-1.23,0-1.83,0-.52-.28-.48-.63-.22-.83.47-.81,1.22,0,1.83,0,.88-.23.87-.79-.36-.78-.88-.78a17,17,0,0,0-1.75,0c-.65.06-.54-.36-.55-.74s0-.78.58-.73a17,17,0,0,0,1.75,0c.51,0,.87-.24.85-.8s-.37-.76-.89-.76c-.95,0-1.89,0-2.84,0-.75,0-1.05.36-1.05,1.07,0,.92,0,1.84,0,2.75Zm-15.81,0c0,.95,0,1.89,0,2.84,0,.56.24.94.81,1,1,0,2.11,0,3.17,0a.74.74,0,0,0,.79-.67v-.12a.76.76,0,0,0-.74-.8h-.13c-.56,0-1.12,0-1.67,0s-.66-.15-.65-.65c0-1.48,0-3,0-4.43,0-.53-.19-1-.8-1s-.79.42-.79,1c0,.95,0,1.89,0,2.84Zm7.18.05c0-1,0-2,0-2.92,0-.59-.18-1-.86-1s-.79.39-.78.93c0,1.92,0,3.84,0,5.76,0,.6.2,1,.85,1s.8-.38.79-.94c0-.94,0-1.89,0-2.84Z"/><path id="Path_30" data-name="Path 30" class="cls-3" d="M20.9,18.74v2.71c0,.28,0,.56,0,.83,0,.51-.26.88-.81.87s-.78-.37-.78-.89V16.5a.83.83,0,0,1,.57-.91.87.87,0,0,1,1,.44l2.5,3.24c.14.18.23.44.59.55,0-1.07,0-2.12,0-3.16,0-.58.09-1.1.81-1.09s.77.51.77,1.06v5.42c0,.44,0,.86-.51,1s-.83-.12-1.12-.5Z"/><path id="Path_31" data-name="Path 31" class="cls-1" d="M26.74,19.36V16.61c0-.71.29-1.09,1.05-1.07.94,0,1.89,0,2.83,0,.52,0,.88.22.89.77s-.34.79-.85.8a17,17,0,0,1-1.75,0c-.62-.05-.59.31-.58.72s-.1.8.56.74,1.16,0,1.75,0,.87.23.87.78-.36.78-.86.8-1.23,0-1.84,0-.43.48-.47.81-.05.67.48.63,1.22,0,1.83,0,.86.25.86.8a.73.73,0,0,1-.68.78h-.12c-1,0-2.05,0-3.08,0-.61,0-.89-.39-.89-1Z"/><path id="Path_32" data-name="Path 32" class="cls-3" d="M10.93,19.37V16.53c0-.54.18-1,.78-1s.8.42.8.95c0,1.48,0,2.95,0,4.42,0,.5.11.7.64.66s1.12,0,1.67,0a.76.76,0,0,1,.87.66.66.66,0,0,1,0,.14.74.74,0,0,1-.68.79H14.9c-1.06,0-2.12,0-3.17,0-.57,0-.82-.39-.81-1C10.94,21.26,10.93,20.32,10.93,19.37Z"/><path id="Path_33" data-name="Path 33" class="cls-4" d="M18.11,19.42c0,.94,0,1.89,0,2.83,0,.56-.19.93-.8.94s-.85-.36-.85-1c0-1.91,0-3.83,0-5.75,0-.54.15-.92.79-.93s.86.37.85,1C18.1,17.47,18.11,18.44,18.11,19.42Z"/></g></g></svg>